<?xml version="1.0" encoding="UTF-8"?>
<svg viewBox="0 0 248.2 291.28" xmlns="http://www.w3.org/2000/svg">
 <g stroke-linejoin="round">
  <g stroke-width="4">
   <path d="m207.33 134.04c0 45.174-55.121 81.838-81.838 81.838-25.718 0-81.838-36.663-81.838-81.838 0-45.174 24.625-81.838 81.838-81.838 57.223 0 81.838 36.663 81.838 81.838z" fill-opacity=".314" stroke-linecap="round"/>
   <path d="m90.05 187.67c7.7514 17.933 11.363 23.327 11.133 33.588-0.10468 4.6737 9.1852-7.6363 9.8295-13.789-0.47321 8.8856 1.1986 11.314 2.1815 20.506 0.98294 9.1924 4.2438 25.142 5.1906 21.567 1.9659-7.4246 2.8862-22.819 8.2773-27.577 2.4398 9.1924 14.915 24.627 12.856 18.738-4.9983-14.297-6.8361-21.151-2.4574-30.052 7.835 9.5142 12.317 13.452 10.812 8.1317-2.5393-8.9783 1.0754-21.312 7.6578-26.516 8.3555-6.6072-65.481-4.9498-65.481-4.5962z" fill="#6c5d53" fill-rule="evenodd" stroke="#000"/>
  </g>
  <g stroke-linecap="round">
   <g stroke="#000">
    <path d="m120.03 39.025c-30.129 0.6106-50.932 11.653-63.625 28.75-24.064-2.5878-44.062 23.625-44.062 23.625s18.891 9.4463 32.062 1.5312c-2.3992 8.7117-3.5625 18.106-3.5625 27.906 0 45.174 56.126 81.844 81.844 81.844 26.717 0 81.844-36.669 81.844-81.844 0-9.8003-1.1639-19.194-3.5625-27.906 13.171 7.9151 32.031-1.5312 32.031-1.5312s-19.971-26.205-44.031-23.625c-13.062-17.595-34.708-28.75-66.281-28.75-0.89395 0-1.7782-0.017792-2.6562 0z" fill="#c8beb7" stroke-width="4"/>
    <g fill="#fff" stroke-width="15.889">
     <path d="m119.06 108.85c0.003731 12.519-10.144 22.67-22.663 22.67s-22.666-10.151-22.663-22.67c-0.003738-12.519 10.144-22.67 22.663-22.67s22.666 10.151 22.663 22.67z"/>
     <path d="m171.8 108.85c0.003723 12.519-10.144 22.67-22.663 22.67s-22.666-10.151-22.663-22.67c-0.003738-12.519 10.144-22.67 22.663-22.67s22.666 10.151 22.663 22.67z"/>
    </g>
   </g>
   <g stroke-width="47.667">
    <path d="m151.65 112.85c0.001221 4.173-3.3813 7.5565-7.5543 7.5565s-7.5555-3.3835-7.5543-7.5565c-0.001236-4.173 3.3813-7.5565 7.5543-7.5565s7.5555 3.3836 7.5543 7.5565z"/>
    <path d="m109.62 112.85c0.001228 4.173-3.3813 7.5565-7.5543 7.5565s-7.5555-3.3835-7.5542-7.5565c-0.001251-4.173 3.3813-7.5565 7.5542-7.5565 4.173 0 7.5555 3.3836 7.5543 7.5565z"/>
   </g>
  </g>
  <path d="m144.18 50.234c-1.9932-10.394 12.583-36.414 42.695-46.118 20.716-6.6762 55.979 1.2319 59.326 41.23-13.48-23.044-37.378-28.541-48.706-23.054-22.732 11.01-12.48 34.475-23.362 40.657-10.131 5.755-27.887-1.9404-29.953-12.715z" fill="#6c5d53" fill-rule="evenodd" stroke="#000" stroke-width="4"/>
  <g stroke-linecap="round">
   <path d="m201.25 94.025l-1.875 2.6562c0.24889 3.0755 0.34375 6.2026 0.34375 9.375 0 45.174-55.127 81.844-81.844 81.844-20.706 1.5e-5 -61.097-23.756-76.062-56.594 7.6158 40.246 57.172 71.375 80.875 71.375 26.717 0 81.844-36.669 81.844-81.844 0-9.3915-1.0754-18.41-3.2812-26.812z" fill-opacity=".314" stroke-width="4"/>
   <g stroke-width="47.667">
    <path d="m139.29 173.48c-2.2927 3.9731-6.5002 5.8386-9.3968 4.1663s-3.3847-6.2489-1.0903-10.221c2.2927-3.9731 6.5003-5.8386 9.3968-4.1663 2.8966 1.6723 3.3847 6.2489 1.0903 10.221z"/>
    <path d="m106.55 173.48c2.2927 3.9731 6.5003 5.8386 9.3968 4.1663 2.8966-1.6723 3.3847-6.2489 1.0903-10.221-2.2927-3.9731-6.5002-5.8386-9.3968-4.1663-2.8965 1.6723-3.3847 6.2489-1.0903 10.221z"/>
   </g>
  </g>
  <path d="m104.02 50.234c1.9932-10.394-12.583-36.414-42.695-46.118-20.716-6.6762-55.979 1.2319-59.326 41.23 13.48-23.044 37.378-28.541 48.706-23.054 22.732 11.01 12.48 34.475 23.362 40.657 10.131 5.755 27.887-1.9404 29.953-12.715z" fill="#6c5d53" fill-rule="evenodd" stroke="#000" stroke-width="4"/>
 </g>
</svg>
