<?xml version="1.0" encoding="UTF-8"?>
<svg viewBox="0 0 640 480" xmlns="http://www.w3.org/2000/svg">
 <g fill-rule="evenodd" stroke-width="4">
  <path d="m351.13 129.02c-2.0312-27.962-83.955-102.78-155.72-27.207-71.768 75.574-77.862 40.054-84.632 41.566-6.7706 1.5115 6.739 17.88 25.728 15.115 46.717-6.8017 77.862-71.796 121.19-71.04 43.664 0.76152 67.029 43.077 67.029 43.077l26.405-1.5115z" fill="#fff" stroke="#000"/>
  <path d="m257.25 77.689c-20.426 0.26717-42.529 9.372-63.676 33.37-19.471 22.096-33.806 34.786-44.513 41.773l-1 0.4807c41.065-15.255 69.886-68.398 109.26-67.701 45.933 0.81222 70.5 45.934 70.5 45.934l10.678-0.6002c-8.2405-21.114-41.618-53.775-81.248-53.256z" fill="#bfbfbf"/>
 </g>
 <g stroke-linecap="round">
  <g stroke-width="4">
   <path d="m429.15 248.44c0 69.677-55.531 197.8-92.742 197.8-38.254 0-92.741-128.13-92.741-197.8 0-69.675 41.548-126.22 92.741-126.22s92.742 56.549 92.742 126.22z" fill="#fff" stroke="#000"/>
   <path d="m427.89 234.61c0.22543 3.458 0.34045 6.9437 0.34045 10.477 0 67.516-56.099 191.7-93.704 191.7-35.26-6.1e-5 -84.184-103.28-92.513-172.67 4.6399 69.006 56.519 182.15 93.421 182.15 37.606 0 93.704-124.18 93.704-191.7 0-6.7989-0.42956-13.457-1.2483-19.955z" fill-opacity=".314"/>
   <g fill="#fff" stroke="#000">
    <path d="m399.87 362.04c19.986-2.0158 35.606-19.291 35.606-40.3 0-22.362-17.711-40.514-39.531-40.514s-39.531 18.152-39.531 40.514c0 1.5717 0.089844 3.1357 0.25952 4.6606"/>
    <path d="m313.92 324.76c0.20602-1.669 0.31201-3.378 0.31201-5.103 0-22.316-17.684-40.429-39.503-40.429-21.817 0-39.528 18.113-39.528 40.429 0 21.481 16.396 39.064 37.086 40.348"/>
   </g>
  </g>
  <g stroke-width="2">
   <path d="m348.32 424.6c0 6.1272-7.3345 13.462-11.1 13.462-4.2378 0-11.1-7.3345-11.1-13.462 0-6.1272 4.9728-5.4319 11.1-5.4319s11.1-0.69528 11.1 5.4319z"/>
   <g stroke="#000">
    <path d="m314.87 383.61c0.001892 5.7384-3.5217 10.392-7.869 10.392s-7.8709-4.6533-7.869-10.392c-0.001892-5.7384 3.5217-10.392 7.869-10.392s7.8709 4.6533 7.869 10.392z"/>
    <path d="m371.53 383.61c0.001923 5.7384-3.5217 10.392-7.869 10.392s-7.8709-4.6533-7.869-10.392c-0.001892-5.7384 3.5217-10.392 7.869-10.392s7.8709 4.6533 7.869 10.392z"/>
   </g>
   <g fill="#fff">
    <path d="m310.15 381.2c8.24e-4 1.9698-0.98587 3.5674-2.2033 3.5674s-2.2041-1.5976-2.2033-3.5674c-8.24e-4 -1.9699 0.98587-3.5675 2.2033-3.5675 1.2175 0 2.2042 1.5976 2.2033 3.5675z"/>
    <path d="m365.24 382.14c7.93e-4 1.9698-0.98587 3.5674-2.2033 3.5674-1.2175 0-2.2042-1.5976-2.2033-3.5674-8.24e-4 -1.9698 0.98587-3.5675 2.2033-3.5675s2.2041 1.5976 2.2033 3.5675z"/>
   </g>
   <path d="m396.38 287.98c-14.278 0.20438-27.514 11.47-30.932 25.43 6.7114-4.4864 15.134-7.1712 24.275-7.1712 18.371 0 33.827 10.799 38.339 25.43 7.1851-19.495-9.2587-43.83-30.031-43.663-0.55273-0.025452-1.1015-0.033295-1.6517-0.025421z" fill="#bfbfbf"/>
  </g>
  <g fill="none" stroke="#000" stroke-width="2.86">
   <path d="m357.74 418.9c45.559-21.24 66.586-1.77 66.586-1.77"/>
   <path d="m353.36 426.86c33.293-21.24 62.205 13.275 62.205 13.275"/>
   <path d="m353.36 431.29c35.045-17.7 41.178 25.665 41.178 25.665"/>
   <path d="m316.07 419.9c-45.559-21.24-66.586-1.77-66.586-1.77"/>
   <path d="m320.46 427.86c-33.293-21.24-62.205 13.275-62.205 13.275"/>
   <path d="m320.46 432.29c-35.045-17.7-41.178 25.665-41.178 25.665"/>
  </g>
  <path d="m275.25 285.98c14.278 0.20908 27.514 11.732 30.932 26.012-6.7114-4.589-15.134-7.3353-24.275-7.3353-18.371-3.1e-5 -33.827 11.047-38.339 26.012-7.1851-19.941 9.2587-44.833 30.031-44.662 0.55276-0.026031 1.1015-0.034058 1.6517-0.026031z" fill-opacity=".314" stroke-width="2"/>
 </g>
</svg>
